<?xml version="1.0" encoding="utf-8"?>
<!-- Generator: Adobe Illustrator 21.1.0, SVG Export Plug-In . SVG Version: 6.00 Build 0)  -->
<svg version="1.1" id="Layer_1" xmlns="http://www.w3.org/2000/svg" xmlns:xlink="http://www.w3.org/1999/xlink" x="0px" y="0px"
	 viewBox="0 0 512 512" style="enable-background:new 0 0 512 512;" xml:space="preserve">
<style type="text/css">
	.st0{fill:#FFCA4F;}
	.st1{fill:#F0B97D;}
	.st2{fill:#15BDB1;}
	.st3{fill:#F1F1F1;}
	.st4{fill:#20D0C2;}
	.st5{fill:#FED198;}
	.st6{fill:#666666;}
	.st7{fill:#FFFFFF;}
	.st8{fill:#ECF0F1;}
	.st9{fill:#377BB9;}
	.st10{fill:#FBB429;}
	.st11{fill:#333333;}
	.st12{fill:#C8CACC;}
	.st13{fill:#E04F5F;}
</style>
<path class="st0" d="M256,512c141,0,256-115,256-256C512,115,397,0,256,0C115,0,0,115,0,256C0,397,115,512,256,512z"/>
<path class="st1" d="M232.1,195.7h9.5h28.8h9.5l3.9,40.3l6.9,5.5l14.5,9.2l-49.1,116l-49.1-116l14.5-9.2l6.9-5.5L232.1,195.7
	L232.1,195.7z"/>
<path class="st2" d="M217,244.2l-70,22.3c0,0-6.8,3.5-10.4,13.8c-20.9,22.3-87.7,95.4-87.7,113.9c0,22,57,74.9,57,74.9H133v19h123
	h123v-19H406c0,0,57-52.9,57-74.9c0-18.5-66.8-91.6-87.7-113.9c-3.6-10.3-10.4-13.8-10.4-13.8l-69.5-22l-5.9,17.3l-33.5-1.6
	l-33.1,1.6L217,244.2L217,244.2z M133,372.2L133,372.2l8.7,34.6l-1.5,36.6l-7.1-8.2l-24.9-35.6L133,372.2L133,372.2z M379,435.2
	L379,435.2l-7.1,7.7l-1.5-42.5l8.7-28.3l24.9,27.4L379,435.2z"/>
<path class="st3" d="M216.4,244.4l-9.4,3L256,366.7l49.5-119l-10.1-3.2l-24.6,15.2h-29.5L216.4,244.4L216.4,244.4z"/>
<path class="st4" d="M217,244.2l-15.1,4.8l-2.9,38.3c0,0,0.8,3.1,3.2,2.9l13.6,5.1c0,0,0.9,0.9,0.1,2l-11.7,8l40.3,76
	c3.8,0.2,7.6,0.3,11.4,0.3c3.8,0,7.6-0.1,11.4-0.3l40.3-76l-11.7-8c-0.8-1.1,0.1-2,0.1-2l13.6-5.1c2.4,0.3,3.2-2.9,3.2-2.9
	l-2.9-38.2l-14.6-4.6L256,360.2L217,244.2L217,244.2z"/>
<path class="st5" d="M311.6,113.8c0,3.7,1.4,7.4,1.3,11c12.8-2.4,6.6,35.6-0.6,40.9c-0.6,0.4-2-0.5-3.2-1.3
	c-2.5,14-24,51.3-37.6,67.1c-3.8,4.4-26.9,4.3-30.7,0.2c-14-15.4-35.4-53.2-37.9-67.2c-1.2,0.8-2.6,1.7-3.2,1.3
	c-7.2-5.2-13.4-43.2-0.6-40.9c-0.1-3.6,1.3-7.3,1.3-11c0.7-29.5,27.5-44.3,55.6-44.4C284.2,69.5,310.9,84.3,311.6,113.8L311.6,113.8
	z"/>
<path class="st6" d="M294.5,75.9c4-0.5,18.6,4,20.4,19.4c1.8,15.4,0.9,29.6,0.9,29.6s-8.5,2.2-9.6,10.9c-1.1,8.8-0.3,8.8-0.3,8.8
	l-3.1-0.7l-2.2-15c-12.8-8,0.1-19.9-12.7-22.6c-34.5,24.6-65,20.4-78.7,8.8c0,0,3.2,12.1,0.7,16.4c-2.5,4.3-1,11.1-1,11.1l-3.2-0.2
	c0,0,0.6-17.8-6.5-17.8C172,80.1,257.8,24.5,294.5,75.9L294.5,75.9z"/>
<g>
	<path class="st7" d="M227.9,230.2c1,0.1-11.7,14.3-11.7,14.3l10.8,36.7l29-21.5C240.1,252,230.6,241.9,227.9,230.2L227.9,230.2z"/>
	<path class="st7" d="M284.1,230.2c-1,0.1,11.7,14.3,11.7,14.3L285,281.2l-29-21.5C271.9,252,281.4,241.9,284.1,230.2L284.1,230.2z"
		/>
</g>
<path class="st8" d="M130.5,447.8c16.3,0,29.6,8.2,29.6,18.4c0,10.1-13.2,18.4-29.6,18.4s-29.6-8.2-29.6-18.4
	C101,456.1,114.2,447.8,130.5,447.8z M130.5,452.7L130.5,452.7c-12.7,0-23,6.1-23,13.5c0,7.5,10.3,13.5,23,13.5s23-6.1,23-13.5
	C153.5,458.7,143.2,452.7,130.5,452.7z"/>
<path class="st9" d="M130.5,479.7c12.7,0,23-6.1,23-13.5c0-7.4-10.3-13.5-23-13.5s-23,6.1-23,13.5
	C107.5,473.6,117.9,479.7,130.5,479.7z"/>
<path class="st10" d="M121.2,473.9v14.8c0,1.8-1.5,3.3-3.3,3.3h-5.9c-1.8,0-3.3-1.5-3.3-3.3v-22.9c0-0.4,0.1-0.7,0.2-1v-5
	c0-4.3,3.5-7.8,7.8-7.8h48.2c4.3,0,7.8,3.5,7.8,7.8v5c0.1,0.3,0.2,0.7,0.2,1v22.9c0,1.8-1.5,3.3-3.3,3.3h-5.9
	c-1.8,0-3.3-1.5-3.3-3.3v-14.8h-4.6v14.8c0,1.8-1.5,3.3-3.3,3.3h-5.9c-1.8,0-3.3-1.5-3.3-3.3v-14.8h-4.6v14.8c0,1.8-1.5,3.3-3.3,3.3
	h-5.9c-1.8,0-3.3-1.5-3.3-3.3v-14.8L121.2,473.9L121.2,473.9z"/>
<path class="st8" d="M381.5,447.8c-16.3,0-29.6,8.2-29.6,18.4c0,10.1,13.2,18.4,29.6,18.4c16.3,0,29.6-8.2,29.6-18.4
	C411,456.1,397.8,447.8,381.5,447.8z M381.5,452.7L381.5,452.7c12.7,0,23,6.1,23,13.5c0,7.5-10.3,13.5-23,13.5
	c-12.7,0-23-6.1-23-13.5C358.5,458.7,368.8,452.7,381.5,452.7z"/>
<path class="st11" d="M381.5,479.7c12.7,0,23-6.1,23-13.5c0-7.4-10.3-13.5-23-13.5c-12.7,0-23,6.1-23,13.5
	C358.5,473.6,368.8,479.7,381.5,479.7z"/>
<path class="st10" d="M390.8,473.9v14.8c0,1.8,1.5,3.3,3.3,3.3h5.9c1.8,0,3.3-1.5,3.3-3.3v-22.9c0-0.4-0.1-0.7-0.2-1v-5
	c0-4.3-3.5-7.8-7.8-7.8h-48.2c-4.3,0-7.8,3.5-7.8,7.8v5c-0.1,0.3-0.2,0.7-0.2,1v22.9c0,1.8,1.5,3.3,3.3,3.3h5.9
	c1.8,0,3.3-1.5,3.3-3.3v-14.8h4.6v14.8c0,1.8,1.5,3.3,3.3,3.3h5.9c1.8,0,3.3-1.5,3.3-3.3v-14.8h4.6v14.8c0,1.8,1.5,3.3,3.3,3.3h5.9
	c1.8,0,3.3-1.5,3.3-3.3v-14.8L390.8,473.9L390.8,473.9z"/>
<path class="st7" d="M124.1,305.2h263.8c8.4,0,15.3,6.9,15.3,15.3v145.8c0,8.4-6.9,15.3-15.3,15.3H124.1c-8.4,0-15.3-6.9-15.3-15.3
	V320.5C108.8,312.1,115.7,305.2,124.1,305.2z"/>
<path class="st12" d="M114.6,489.1h282.8c3.2,0,5.8,2.6,5.8,5.8v11.2c0,3.2-2.6,5.8-5.8,5.8H114.6c-3.2,0-5.8-2.6-5.8-5.8V495
	C108.8,491.8,111.4,489.1,114.6,489.1z"/>
<g>
	<path class="st8" d="M152,478.1h25v17h-25V478.1z M335,478.1L335,478.1h25v17h-25V478.1z"/>
	<path class="st8" d="M228.3,371.3h55.5c0.7,0,1.4,0.6,1.4,1.4v12.6c0,0.7-0.6,1.3-1.4,1.3h-55.5c-0.7,0-1.3-0.6-1.3-1.3v-12.6
		C226.9,371.9,227.5,371.3,228.3,371.3z"/>
</g>
<g>
	<path class="st13" d="M340.2,394.4c0-47.1-38.2-85.3-85.3-85.3c-47.1,0-85.3,38.2-85.3,85.3c0,47.1,38.2,85.3,85.3,85.3
		C302,479.7,340.2,441.5,340.2,394.4z"/>
	<path class="st7" d="M268.5,394.4l33.9-39.3c3.7-4.3,3.2-10.8-1.1-14.5c-4.3-3.7-10.8-3.2-14.5,1.1l-31.9,37l-31.9-37
		c-3.7-4.3-10.2-4.8-14.5-1.1c-4.3,3.7-4.8,10.2-1.1,14.5l33.9,39.3l-33.9,39.3c-3.7,4.3-3.2,10.8,1.1,14.5c1.9,1.7,4.3,2.5,6.7,2.5
		c2.9,0,5.7-1.2,7.8-3.6l31.9-37l31.9,37c2,2.4,4.9,3.6,7.8,3.6c2.4,0,4.7-0.8,6.7-2.5c4.3-3.7,4.8-10.2,1.1-14.5L268.5,394.4z"/>
</g>
</svg>
